<svg width="3405" height="3404" xmlns="http://www.w3.org/2000/svg" xmlns:xlink="http://www.w3.org/1999/xlink" xml:space="preserve" overflow="hidden"><defs><clipPath id="clip0"><rect x="57" y="52" width="3405" height="3404"/></clipPath></defs><g clip-path="url(#clip0)" transform="translate(-57 -52)"><path d="M57.0001 1754C57.0001 814.011 819.235 51.9999 1759.5 51.9999 2699.76 51.9999 3462 814.011 3462 1754 3462 2693.99 2699.76 3456 1759.5 3456 819.235 3456 57.0001 2693.99 57.0001 1754Z" fill="#00603B" fill-rule="evenodd"/><path d="M530 1674 1760 176 2990 1674Z" fill="#FFFFFF" fill-rule="evenodd"/><rect x="690" y="1621" width="231" height="1255" fill="#FFFFFF"/><rect x="2598" y="1621" width="231" height="1255" fill="#FFFFFF"/><path d="M921 1674 1759.5 1105 2598 1674Z" fill="#00603B" fill-rule="evenodd"/><path d="M1564.37 2711.69 1515.48 2467.53C1212.4 2356.19 1076.39 2063.77 1211.71 1814.4 1347.03 1565.02 1702.43 1453.12 2005.52 1564.46 2308.6 1675.8 2444.61 1968.22 2309.29 2217.59 2209.41 2401.65 1983.74 2517.41 1738.9 2510.17Z" stroke="#FFFFFF" stroke-width="114.583" stroke-miterlimit="8" fill="#00603B" fill-rule="evenodd"/><path d="M1366 2029C1366 1968.8 1415.02 1920 1475.5 1920 1535.98 1920 1585 1968.8 1585 2029 1585 2089.2 1535.98 2138 1475.5 2138 1415.02 2138 1366 2089.2 1366 2029Z" fill="#FFFFFF" fill-rule="evenodd"/><path d="M1651 2029C1651 1968.8 1699.8 1920 1760 1920 1820.2 1920 1869 1968.8 1869 2029 1869 2089.2 1820.2 2138 1760 2138 1699.8 2138 1651 2089.2 1651 2029Z" fill="#FFFFFF" fill-rule="evenodd"/><path d="M1935 2029C1935 1968.8 1984.02 1920 2044.5 1920 2104.98 1920 2154 1968.8 2154 2029 2154 2089.2 2104.98 2138 2044.5 2138 1984.02 2138 1935 2089.2 1935 2029Z" fill="#FFFFFF" fill-rule="evenodd"/><path d="M1446 1004 1760 477 1760 1004Z" fill="#1F8241" fill-rule="evenodd"/><path d="M0 527 313 0 313 527Z" fill="#00603B" fill-rule="evenodd" transform="matrix(-1 0 0 1 2073 477)"/><path d="M1411 1023 1759.5 817 2108 1023Z" fill="#FFFFFF" fill-rule="evenodd"/><rect x="2540" y="2767" width="347" height="109" fill="#FFFFFF"/><rect x="632" y="2767" width="347" height="109" fill="#FFFFFF"/></g></svg>