<svg width="1681" height="1844" xmlns="http://www.w3.org/2000/svg" xmlns:xlink="http://www.w3.org/1999/xlink" xml:space="preserve" overflow="hidden"><defs><clipPath id="clip0"><rect x="919" y="621" width="1681" height="1844"/></clipPath></defs><g clip-path="url(#clip0)" transform="translate(-919 -621)"><path d="M1759.5 621 2600 1644 2332.54 1644 1759.5 1255.09 1186.46 1644 919 1644Z" fill="#FFFFFF" fill-rule="evenodd"/><rect x="1029" y="1608" width="158" height="857" fill="#FFFFFF"/><rect x="2333" y="1608" width="158" height="857" fill="#FFFFFF"/><path d="M1624.57 2356.75 1590.81 2188.38C1381.53 2111.6 1287.61 1909.95 1381.05 1737.98 1474.49 1566.01 1719.9 1488.85 1929.19 1565.63 2138.47 1642.4 2232.39 1844.05 2138.95 2016.02 2069.98 2142.95 1914.15 2222.78 1745.09 2217.78Z" stroke="#FFFFFF" stroke-width="91.6667" stroke-miterlimit="8" fill="#00603B" fill-rule="evenodd"/><path d="M1491 1886.5C1491 1845.35 1524.35 1812 1565.5 1812 1606.65 1812 1640 1845.35 1640 1886.5 1640 1927.65 1606.65 1961 1565.5 1961 1524.35 1961 1491 1927.65 1491 1886.5Z" fill="#FFFFFF" fill-rule="evenodd"/><path d="M1685 1886.5C1685 1845.35 1718.58 1812 1760 1812 1801.42 1812 1835 1845.35 1835 1886.5 1835 1927.65 1801.42 1961 1760 1961 1718.58 1961 1685 1927.65 1685 1886.5Z" fill="#FFFFFF" fill-rule="evenodd"/><path d="M1880 1886.5C1880 1845.35 1913.35 1812 1954.5 1812 1995.65 1812 2029 1845.35 2029 1886.5 2029 1927.65 1995.65 1961 1954.5 1961 1913.35 1961 1880 1927.65 1880 1886.5Z" fill="#FFFFFF" fill-rule="evenodd"/><path d="M1546 1186 1760 826 1760 1186Z" fill="#1F8241" fill-rule="evenodd"/><path d="M0 360 214 0 214 360Z" fill="#00603B" fill-rule="evenodd" transform="matrix(-1 0 0 1 1974 826)"/><path d="M1522 1200 1760 1058 1998 1200Z" fill="#FFFFFF" fill-rule="evenodd"/><rect x="2293" y="2391" width="237" height="74" fill="#FFFFFF"/><rect x="989" y="2391" width="237" height="74" fill="#FFFFFF"/></g></svg>