<svg width="2631" height="2887" viewBox="444 316 2631 2887" xmlns="http://www.w3.org/2000/svg" xml:space="preserve" overflow="hidden">
<path d="M444 1919 1759.5 316 3075 1919Z" fill="#FFFFFF" fill-rule="evenodd"/>
<rect x="616" y="1861" width="247" height="1342" fill="#FFFFFF"/>
<rect x="2656" y="1861" width="248" height="1342" fill="#FFFFFF"/>
<path d="M863 1919 1759.5 1309 2656 1919Z" fill="#00603B" fill-rule="evenodd"/>
<path d="M1550.66 3027.74 1498.36 2766.54C1174.09 2647.43 1028.59 2334.61 1173.36 2067.84 1318.14 1801.06 1698.37 1681.35 2022.64 1800.46 2346.91 1919.57 2492.41 2232.39 2347.64 2499.16 2240.78 2696.07 1999.34 2819.91 1737.39 2812.16Z" stroke="#FFFFFF" stroke-width="114.583" stroke-miterlimit="8" fill="#00603B" fill-rule="evenodd"/>
<path d="M1339 2298C1339 2233.38 1391.16 2181 1455.5 2181 1519.84 2181 1572 2233.38 1572 2298 1572 2362.62 1519.84 2415 1455.5 2415 1391.16 2415 1339 2362.62 1339 2298Z" fill="#FFFFFF" fill-rule="evenodd"/>
<path d="M1643 2298C1643 2233.38 1695.38 2181 1760 2181 1824.62 2181 1877 2233.38 1877 2298 1877 2362.62 1824.62 2415 1760 2415 1695.38 2415 1643 2362.62 1643 2298Z" fill="#FFFFFF" fill-rule="evenodd"/>
<path d="M1948 2298C1948 2233.38 2000.16 2181 2064.5 2181 2128.84 2181 2181 2233.38 2181 2298 2181 2362.62 2128.84 2415 2064.5 2415 2000.16 2415 1948 2362.62 1948 2298Z" fill="#FFFFFF" fill-rule="evenodd"/>
<path d="M1425 1201 1760 638 1760 1201Z" fill="#1F8241" fill-rule="evenodd"/>
<path d="M0 563 335 0 335 563Z" fill="#00603B" fill-rule="evenodd" transform="matrix(-1 0 0 1 2095 638)"/>
<path d="M1387 1222 1759.5 1002 2132 1222Z" fill="#FFFFFF" fill-rule="evenodd"/>
<rect x="2595" y="3087" width="371" height="116" fill="#FFFFFF"/>
<rect x="554" y="3087" width="371" height="116" fill="#FFFFFF"/>
</svg>
